<?xml version="1.0" encoding="UTF-8" standalone="no"?><!DOCTYPE svg PUBLIC "-//W3C//DTD SVG 1.1//EN" "http://www.w3.org/Graphics/SVG/1.1/DTD/svg11.dtd"><svg width="100%" height="100%" viewBox="0 0 2134 2134" version="1.1" xmlns="http://www.w3.org/2000/svg" xmlns:xlink="http://www.w3.org/1999/xlink" xml:space="preserve" xmlns:serif="http://www.serif.com/" style="fill-rule:evenodd;clip-rule:evenodd;stroke-linejoin:round;stroke-miterlimit:2;"><g id="Layer-2" serif:id="Layer 2"><g><path d="M1908.21,1732.68c-175.868,382.727 -730.381,483.658 -1203.3,242.127c-472.93,-241.521 -646.808,-796.469 -539.365,-1118.38c132.759,-397.783 760.442,-482.042 1233.37,-240.516c472.925,241.525 754.148,583.931 509.299,1116.77" style="fill:#f15a29;fill-rule:nonzero;"/><path d="M1924.99,1608.56c-191.646,375.248 -730.386,483.658 -1203.31,242.128c-472.924,-241.521 -700.949,-741.517 -509.303,-1116.77c191.641,-375.252 730.381,-483.658 1203.31,-242.132c472.924,241.526 700.945,741.522 509.303,1116.77" style="fill:#f7941d;fill-rule:nonzero;"/><path d="M574.009,812.705l-193.794,-484.486c20.925,-32.311 296.145,-184.385 334.296,-179.266l968.973,552.32c33.88,37.346 74.354,134.324 82.366,184.106l0,615.302c-17.777,33.926 -281.459,203.18 -319.763,203.481c-0,-0 -615.575,-499.223 -804.25,-721.888c-29.515,-34.833 -61.525,-124.345 -67.828,-169.569" style="fill:#58595b;fill-rule:nonzero;"/><path d="M1489.69,817.551l170.43,-102.259c12.427,-7.456 28.576,-2.374 34.491,10.849l71.239,159.238l-193.798,116.274l-82.362,-184.102Z" style="fill:#58595b;fill-rule:nonzero;"/><path d="M1572.05,1616.95l193.798,-116.278l0,-615.302l-193.798,116.282l-0,615.298Z" style="fill:#6d6e71;fill-rule:nonzero;"/><path d="M1489.69,817.551l-968.972,-552.315l193.793,-116.283l962.433,548.594c2.93,1.666 2.976,5.864 0.088,7.6l-187.342,112.404Z" style="fill:#414042;fill-rule:nonzero;"/><path d="M380.215,928.983l-0,-600.769c20.925,-32.31 102.351,-68.102 140.503,-62.978l968.972,552.315c33.88,37.346 74.355,134.324 82.362,184.106l-0,615.293c-17.778,33.93 -87.661,86.911 -125.965,87.217c-0,-0 -809.369,-382.945 -998.044,-605.615c-29.519,-34.833 -61.524,-124.35 -67.828,-169.569" style="fill-rule:nonzero;"/><path d="M636.996,991.966c-6.059,-24.702 -0,-101.741 -0,-101.741c-0,0 -79.228,-40.128 -96.899,-62.987c-14.057,-18.18 -25.387,-64.524 -29.066,-87.207c-3.3,-20.323 -50.417,-46.011 -38.763,-62.983c9.553,-13.904 84.907,-44.673 101.745,-43.604c17.847,1.134 62.983,33.912 62.983,33.912c-0,0 -55.888,-60.386 -38.758,-77.515c17.13,-17.13 113.857,-29.946 135.657,-19.379c26.386,12.783 63.057,64.352 72.67,92.053c9.733,28.029 -0,118.699 -0,118.699c-0,-0 81.634,30.76 101.745,50.87c15.319,15.32 33.777,56.429 38.757,77.52c6.124,25.933 14.533,92.049 -38.757,125.965c-13.284,8.456 -8.711,-16.694 -24.225,-19.379c-17.741,-3.073 -67.829,-24.224 -67.829,-24.224c0,-0 19.699,91.733 0,111.432c-21.41,21.41 -38.757,19.379 -38.757,19.379c-26.873,-16.288 -133.019,-100.292 -140.503,-130.811" style="fill:#a7a9ac;fill-rule:nonzero;"/><path d="M1058.5,1171.23c10.807,-28.673 87.614,-49.597 116.278,-38.758c40.609,15.353 97.746,108.072 87.202,150.19c-7.257,29.02 -72.711,70.217 -101.74,62.987c-48.982,-12.209 -119.546,-127.182 -101.74,-174.419" style="fill:#bfa711;fill-rule:nonzero;"/><path d="M1203.85,965.32c11.479,-32.718 98.501,-58.604 130.811,-46.029c38.374,14.936 87.782,105.462 77.516,145.349c-7.743,30.093 -73.822,74.553 -104.166,67.824c-48.07,-10.65 -120.471,-120.689 -104.161,-167.144" style="fill:#be1e2d;fill-rule:nonzero;"/><path d="M598.233,1011.34c-6.058,-24.701 0,-101.74 0,-101.74c0,0 -79.228,-40.128 -96.899,-62.987c-14.056,-18.18 -25.386,-64.524 -29.07,-87.207c-3.296,-20.324 -11.655,-65.39 -0,-82.362c9.553,-13.904 46.149,-25.294 62.987,-24.225c17.847,1.134 62.982,33.917 62.982,33.917c0,-0 -17.129,-79.77 0,-96.899c17.13,-17.13 75.1,-10.567 96.899,-0c26.382,12.783 63.057,64.352 72.67,92.053c9.734,28.029 0,118.699 0,118.699c0,-0 81.635,30.76 101.745,50.87c15.32,15.324 33.778,56.429 38.758,77.52c6.119,25.933 18.842,87.744 -0,106.586c-11.136,11.136 -47.468,2.685 -62.983,0c-17.745,-3.073 -67.828,-24.225 -67.828,-24.225c-0,0 19.698,91.734 -0,111.433c-21.415,21.41 -95.228,15.699 -121.124,-0c-26.872,-16.288 -50.657,-80.913 -58.137,-111.433" style="fill:#e6e7e8;fill-rule:nonzero;"/><path d="M1019.74,1190.61c10.807,-28.673 87.619,-49.597 116.278,-38.762c40.609,15.356 97.746,108.076 87.207,150.19c-7.261,29.024 -72.716,70.216 -101.745,62.987c-48.981,-12.205 -119.545,-127.183 -101.74,-174.415" style="fill:#ffde17;fill-rule:nonzero;"/><path d="M1165.09,984.699c11.483,-32.709 98.505,-58.604 130.815,-46.024c38.374,14.94 87.777,105.461 77.516,145.344c-7.743,30.093 -73.822,74.553 -104.166,67.828c-48.07,-10.654 -120.471,-120.689 -104.165,-167.148" style="fill:#ed1c24;fill-rule:nonzero;"/><path d="M1072.96,508.21c-27.006,0 -50.412,-20.119 -53.837,-47.611c-8.215,-65.959 -24.155,-225.78 5.23,-285.083c32.176,-64.945 149.473,-128.377 216.908,-130.145c57.706,-1.592 117.773,40.373 175.692,80.876c33.879,23.697 76.039,53.184 97.515,56.729c7.706,1.273 17.268,1.875 26.849,1.893c16.361,0.024 28.885,-14.736 25.96,-30.834c-3.166,-17.412 -7.965,-37.503 -13.58,-55.632c-8.881,-28.645 7.133,-59.081 35.768,-67.977c28.659,-8.882 59.072,7.091 67.982,35.726c0.388,1.241 9.525,30.751 15.926,64.209c11.358,59.364 7.687,97.057 -11.895,122.207c-17.606,22.614 -47.149,35.569 -90.313,39.614c-29.307,2.74 -57.655,0.764 -74.401,-2.004c-45.825,-7.567 -92.581,-40.271 -142.081,-74.896c-34.962,-24.447 -87.661,-61.302 -110.067,-61.302c-0.171,-0 -0.342,-0 -0.513,0.004c-31.598,0.829 -110.53,45.821 -122.388,69.768c-9.178,21.8 -6.878,125.364 5.036,221.883c3.638,29.455 -16.162,57.521 -45.511,61.951c-2.781,0.416 -5.549,0.624 -8.28,0.624" style="fill:#231f20;fill-rule:nonzero;"/></g></g></svg>